<svg xmlns="http://www.w3.org/2000/svg" viewBox="0 0 200 200" width="200" height="200" role="img" aria-label="Selo Emmanuel Serviços desde 2015">
  
  <circle cx="100" cy="100" r="95" fill="none" stroke="#B5532E" stroke-width="2.5"></circle>
  <circle cx="100" cy="100" r="83" fill="none" stroke="#B5532E" stroke-width="1" opacity="0.55"></circle>
  <rect x="96.5" y="14.5" width="7" height="7" rx="1.4" transform="rotate(45 100 18)" fill="#B5532E"></rect>
  <rect x="96.5" y="178.5" width="7" height="7" rx="1.4" transform="rotate(45 100 182)" fill="#B5532E"></rect>
  <g transform="translate(88 52) scale(0.375)"><path fill="#B5532E" fill-rule="evenodd" d="M20 6 H44 Q58 6 58 20 V44 Q58 58 44 58 H20 Q6 58 6 44 V20 Q6 6 20 6 Z M24 50 V33 Q24 22 32 22 Q40 22 40 33 V50 Z"></path></g>
  <text x="100" y="99" text-anchor="middle" font-family="Inter, sans-serif" font-weight="700" font-size="9" letter-spacing="1.7" fill="#B5532E">EMMANUEL SERVIÇOS</text>
  <line x1="86" y1="106" x2="114" y2="106" stroke="#B5532E" stroke-width="1" opacity="0.5"></line>
  <text x="100" y="133" text-anchor="middle" font-family="Fraunces, Georgia, serif" font-weight="600" font-size="25" fill="#B5532E">2015</text>
  <text x="100" y="150" text-anchor="middle" font-family="Inter, sans-serif" font-weight="600" font-size="7.5" letter-spacing="1.5" fill="#B5532E">DESDE · MINAS GERAIS</text>
</svg>